<svg xmlns="http://www.w3.org/2000/svg" width="1000" height="650" viewBox="0 0 1000 650"><defs><linearGradient id="g" x1="0" y1="0" x2="1" y2="1"><stop stop-color="#003087"/><stop offset="1" stop-color="#001e62"/></linearGradient><radialGradient id="r" cx=".72" cy=".28" r=".55"><stop stop-color="#4db8ff" stop-opacity=".75"/><stop offset="1" stop-color="#4db8ff" stop-opacity="0"/></radialGradient></defs><rect width="1000" height="650" fill="url(#g)"/><rect width="1000" height="650" fill="url(#r)"/><circle cx="800" cy="130" r="170" fill="#fff" opacity=".07"/><path d="M0 470 C180 360 300 540 500 420 C700 300 790 400 1000 260 L1000 650 L0 650z" fill="#000" opacity=".22"/><path d="M660 150 h85 v300 h-85z M775 160 c110 10 150 70 124 130-24 58-112 76-190 70v-76c64 5 100-8 106-33 7-30-25-45-106-48z" fill="#fff" opacity=".14"/><text x="70" y="120" fill="#fff" font-family="Arial" font-size="58" font-weight="900">PLAYSTATION</text><text x="74" y="170" fill="#fff" opacity=".82" font-family="Arial" font-size="26" font-weight="700">PSN cards</text></svg>